<?xml version="1.0" encoding="UTF-8" standalone="no"?>
<svg
   xmlns:dc="http://purl.org/dc/elements/1.1/"
   xmlns:cc="http://creativecommons.org/ns#"
   xmlns:rdf="http://www.w3.org/1999/02/22-rdf-syntax-ns#"
   xmlns:svg="http://www.w3.org/2000/svg"
   xmlns="http://www.w3.org/2000/svg"
   xmlns:sodipodi="http://sodipodi.sourceforge.net/DTD/sodipodi-0.dtd"
   xmlns:inkscape="http://www.inkscape.org/namespaces/inkscape"
   id="Layer_1"
   data-name="Layer 1"
   viewBox="0 0 619.99997 135.1"
   version="1.1"
   sodipodi:docname="logo-viavarejo.svg"
   width="620"
   height="135.10001"
   inkscape:version="1.0.1 (3bc2e813f5, 2020-09-07)">
  <metadata
     id="metadata160">
    <rdf:RDF>
      <cc:Work
         rdf:about="">
        <dc:format>image/svg+xml</dc:format>
        <dc:type
           rdf:resource="http://purl.org/dc/dcmitype/StillImage" />
        <dc:title></dc:title>
      </cc:Work>
    </rdf:RDF>
  </metadata>
  <sodipodi:namedview
     pagecolor="#ffffff"
     bordercolor="#666666"
     borderopacity="1"
     objecttolerance="10"
     gridtolerance="10"
     guidetolerance="10"
     inkscape:pageopacity="0"
     inkscape:pageshadow="2"
     inkscape:window-width="2560"
     inkscape:window-height="1017"
     id="namedview158"
     showgrid="false"
     inkscape:zoom="0.91179961"
     inkscape:cx="585.655"
     inkscape:cy="66.55"
     inkscape:window-x="-8"
     inkscape:window-y="-8"
     inkscape:window-maximized="1"
     inkscape:current-layer="Layer_1"
     inkscape:document-rotation="0" />
  <defs
     id="defs98">
    <style
       id="style86">.cls-1{fill:#fff;}.cls-1,.cls-2,.cls-3,.cls-4{fill-rule:evenodd;}.cls-2{fill:#1a493d;}.cls-3{fill:#09774f;}.cls-4{fill:#fcbe3c;}.cls-5{mask:url(#mask);}.cls-6{mask:url(#mask-2-2);}</style>
    <mask
       id="mask"
       x="215.34"
       y="0"
       width="52.27"
       height="4.1"
       maskUnits="userSpaceOnUse">
      <g
         transform="translate(-374.36,-473.11)"
         id="g90">
        <g
           id="mask-2">
          <polygon
             id="path-1"
             class="cls-1"
             points="589.7,473.12 641.96,473.12 641.96,477.21 589.7,477.21 " />
        </g>
      </g>
    </mask>
    <mask
       id="mask-2-2"
       x="0"
       y="0"
       width="1171.31"
       height="133.1"
       maskUnits="userSpaceOnUse">
      <g
         transform="translate(-374.36,-473.11)"
         id="g95">
        <g
           id="mask-4">
          <polygon
             id="path-3"
             class="cls-1"
             points="374.36,606.22 1545.66,606.22 1545.66,473.12 374.36,473.12 " />
        </g>
      </g>
    </mask>
  </defs>
  <g
     id="E-mail---Integracao-do-Seller">
    <g
       id="E-mail">
      <g
         id="Header-Body">
        <g
           id="Logotipo-Marketplace-VERT_White"
           data-name="Logotipo-Marketplace-VERT/White">
          <g
             id="Group-41">
            <path
               id="Fill-1"
               class="cls-2"
               d="m 639.82,534.45 -12.56,45.87 c -1.44,5.34 -3.74,6.34 -6.52,6.34 -2.78,0 -5.27,-1 -6.71,-6.34 l -12.56,-45.87 a 2.57,2.57 0 0 1 -0.1,-0.81 1.53,1.53 0 0 1 1.54,-1.71 h 1 c 0.68,0 1.35,0.4 1.73,1.81 l 12.27,45.47 c 0.87,3 1.83,3.62 2.88,3.62 1.05,0 1.82,-0.6 2.68,-3.62 l 12.28,-45.47 c 0.38,-1.41 1,-1.81 1.72,-1.81 h 1.15 c 1,0 1.35,0.6 1.35,1.51 a 3.5,3.5 0 0 1 -0.1,1"
               transform="translate(-374.36,-473.11)" />
            <path
               id="Fill-3"
               class="cls-2"
               d="m 654.2,586.06 h -0.57 a 1.94,1.94 0 0 1 -1.82,-1.92 v -50.3 a 1.93,1.93 0 0 1 1.82,-1.91 h 0.57 a 1.93,1.93 0 0 1 1.82,1.91 v 50.3 a 1.94,1.94 0 0 1 -1.82,1.92 m 0,-64.11 h -0.57 a 1.87,1.87 0 0 1 -1.82,-1.92 v -7.46 a 1.93,1.93 0 0 1 1.82,-1.91 h 0.57 a 1.93,1.93 0 0 1 1.82,1.91 V 520 a 1.87,1.87 0 0 1 -1.82,2"
               transform="translate(-374.36,-473.11)" />
            <path
               id="Fill-5"
               class="cls-2"
               d="m 700,557.53 h -7.38 c -14.48,0 -19.46,3 -19.46,11.59 v 1.31 c 0,9.38 4.69,12.3 10.45,12.3 5.37,0 10,-1.51 16.39,-5.14 z m 2.3,28.53 h -0.48 a 2,2 0 0 1 -1.92,-2 v -2.52 c -4.69,2.73 -10.35,5.14 -16.29,5.14 -7.2,0 -14.67,-3.63 -14.67,-16.23 v -1.31 c 0,-10.38 6.23,-15.52 23.68,-15.52 H 700 V 550 c 0,-10.48 -2.78,-14.61 -12.08,-14.61 a 99.22,99.22 0 0 0 -13.61,0.9 H 674 c -0.86,0 -1.82,-0.4 -1.82,-1.51 v -0.6 c 0,-1.11 0.77,-1.62 2.21,-1.82 A 93.62,93.62 0 0 1 688,531.45 c 12.94,0 16.3,7.66 16.3,18.55 v 34 a 2,2 0 0 1 -1.92,2 z"
               transform="translate(-374.36,-473.11)" />
            <path
               id="Fill-7"
               class="cls-2"
               d="m 763.71,531.52 -12.79,45.87 c -2,7.46 -7.5,9.47 -12.68,9.47 -5.18,0 -10.55,-2 -12.58,-9.47 l -12.79,-45.87 a 1.7,1.7 0 0 1 -0.1,-0.7 1.6,1.6 0 0 1 1.62,-1.62 h 10.15 c 0.91,0 1.73,0.71 2,2 l 9.74,42.24 c 0.41,1.91 1.12,2.52 1.93,2.52 0.81,0 1.52,-0.61 1.93,-2.52 l 9.74,-42.24 a 2.33,2.33 0 0 1 2.13,-2 h 10.15 a 1.6,1.6 0 0 1 1.62,1.62 1.7,1.7 0 0 1 -0.1,0.7"
               transform="translate(-374.36,-473.11)" />
            <path
               id="Fill-9"
               class="cls-2"
               d="m 800.07,561.06 h -6.32 c -9.13,0 -11.13,2.92 -11.13,8.57 v 0.4 c 0,4.94 2.2,6.25 7.22,6.25 a 21.91,21.91 0 0 0 10.23,-2.82 z m 11.24,25 h -8.53 a 2,2 0 0 1 -2,-2 v -1.61 a 27.09,27.09 0 0 1 -14.14,4.43 c -8.33,0 -17.35,-3.22 -17.35,-16.83 v -0.4 c 0,-11.49 7,-17.44 24.47,-17.44 h 6.32 v -4.44 c 0,-6.55 -2.91,-8.16 -8.82,-8.16 a 158.89,158.89 0 0 0 -16.36,0.8 h -0.5 c -1,0 -1.8,-0.3 -1.8,-1.71 v -6.45 c 0,-1.11 0.6,-1.82 1.9,-2.12 a 86.76,86.76 0 0 1 16.76,-1.61 c 14.24,0 22.07,6.35 22.07,19.25 V 584 a 2,2 0 0 1 -2,2 z"
               transform="translate(-374.36,-473.11)" />
            <path
               id="Fill-11"
               class="cls-2"
               d="m 851.85,539.79 a 26.28,26.28 0 0 0 -13.28,3.63 v 40.52 a 2.07,2.07 0 0 1 -1.92,2.12 h -8.86 a 2.07,2.07 0 0 1 -1.92,-2.12 v -52.72 a 2,2 0 0 1 1.92,-2 h 8.38 a 2,2 0 0 1 1.92,2 v 2.12 a 21.74,21.74 0 0 1 13.76,-4.84 2,2 0 0 1 1.93,2 v 7.25 a 2,2 0 0 1 -1.93,2"
               transform="translate(-374.36,-473.11)" />
            <path
               id="Fill-13"
               class="cls-2"
               d="m 894.86,552.39 c 0,-7.86 -4.34,-12.4 -10.59,-12.4 -6.25,0 -10.79,4.43 -10.79,12.4 v 0.41 h 21.38 z m 11.4,9.88 h -32.88 v 0.3 c 0,5.85 2.42,12.8 12.1,12.8 7.36,0 14.32,-0.6 18.55,-1 h 0.31 c 1,0 1.82,0.5 1.82,1.51 v 6.65 c 0,1.61 -0.31,2.32 -2.13,2.62 a 89.64,89.64 0 0 1 -19.56,1.71 c -10.09,0 -24.4,-5.44 -24.4,-25.3 v -7.46 c 0,-15.72 8.77,-25.6 24.2,-25.6 15.43,0 24,10.58 24,25.6 v 5.65 c 0,1.61 -0.61,2.52 -2,2.52 z"
               transform="translate(-374.36,-473.11)" />
            <path
               id="Fill-15"
               class="cls-2"
               d="m 930,521.65 h -9.24 a 2,2 0 0 1 -1.93,-2 v -8.87 a 2,2 0 0 1 1.93,-2 H 930 a 2.06,2.06 0 0 1 2,2 v 8.87 a 2.06,2.06 0 0 1 -2,2 m -12.52,84.57 a 34.92,34.92 0 0 1 -6.35,-0.61 c -1.25,-0.2 -1.82,-0.8 -1.82,-1.81 v -6.55 c 0,-1 0.76,-1.61 2,-1.61 h 4.33 c 3.08,0 3.37,-1.32 3.37,-5.35 v -59.07 a 2,2 0 0 1 1.92,-2 h 8.86 a 2,2 0 0 1 1.92,2 v 59.07 c 0,12.3 -5.3,15.93 -14.25,15.93"
               transform="translate(-374.36,-473.11)" />
            <path
               id="Fill-17"
               class="cls-2"
               d="m 977.24,553.6 c 0,-8.27 -3.77,-13.61 -10.89,-13.61 -7.12,0 -10.89,5.34 -10.89,13.61 v 8.16 c 0,8.27 3.76,13.61 10.89,13.61 7.13,0 10.89,-5.34 10.89,-13.61 z m -10.89,33.26 c -16,0 -24.33,-10.68 -24.33,-25.1 v -8.16 c 0,-14.42 8.35,-25.1 24.33,-25.1 15.98,0 24.32,10.68 24.32,25.1 v 8.16 c 0,14.42 -8.34,25.1 -24.32,25.1 z"
               transform="translate(-374.36,-473.11)" />
            <path
               id="Fill-19"
               class="cls-3"
               d="m 496.49,580.15 c -6.5,0 -13,-3.35 -17.95,-9.18 -2.32,-2.75 -7.59,-10.5 -12.69,-18 -4.09,-6 -7.94,-11.67 -9.63,-13.8 -3.28,-4.15 -10.1,-12.8 -19.39,-12.8 -8.83,0 -14.89,6.24 -29,21.62 -14.25,15.58 -30.74,16 -31.43,16 a 2,2 0 0 1 -2.08,-2 2,2 0 0 1 2,-2.09 c 0.15,0 15.46,-0.48 28.48,-14.7 14,-15.27 21,-22.94 32,-22.94 11.27,0 19.21,10.06 22.61,14.35 1.77,2.25 5.67,8 9.79,14 4.81,7.07 10.26,15.08 12.44,17.67 4.13,4.9 9.53,7.72 14.82,7.72 5.29,0 11.2,-0.82 17.76,-10.61 3.62,-5.41 14.21,-22.92 24.46,-39.85 8.56,-14.06 16.62,-27.38 19.32,-31.54 9.11,-13.86 20.45,-20.89 33.71,-20.89 h 48.17 a 2.045,2.045 0 1 1 0,4.09 h -48.14 c -12,0 -21.87,6.23 -30.29,19.05 -2.68,4.08 -10.72,17.38 -19.24,31.44 -10.26,17 -20.88,34.53 -24.56,40 -7.31,10.92 -14.49,12.43 -21.16,12.43"
               transform="translate(-374.36,-473.11)" />
            <path
               id="Fill-21"
               class="cls-4"
               d="m 531.32,591.93 c -15,0 -25.64,-14 -29.51,-20 -1.69,-2.63 -5.12,-8.3 -8.75,-14.3 -3.91,-6.47 -8,-13.16 -9.67,-15.77 -6.78,-10.32 -14.3,-15.33 -23,-15.33 a 23.7,23.7 0 0 0 -17.58,7.54 c -2,2 -6.47,7.16 -12.64,14.27 l -4.34,5 c -9.5,10.95 -18.76,10.95 -23.73,10.95 h -25.7 a 2.05,2.05 0 0 1 0,-4.1 h 25.7 c 6,0 13,-0.73 20.64,-9.53 l 4.33,-5 c 6.23,-7.18 10.72,-12.37 12.84,-14.49 a 28,28 0 0 1 20.48,-8.74 c 10.19,0 18.83,5.62 26.42,17.18 1.76,2.68 5.82,9.4 9.75,15.9 3.62,6 7,11.62 8.69,14.2 3.51,5.46 13.07,18.14 26.07,18.14 13,0 20.95,-10.54 24.73,-15.61 l 0.64,-0.86 c 2.36,-3.11 23.79,-37 38,-59.37 6.34,-10 11.39,-18 13,-20.52 5.73,-8.87 17.21,-18.35 32.22,-18.35 a 2.05,2.05 0 1 1 0,4.1 c -13.37,0 -23.63,8.5 -28.78,16.47 -1.63,2.53 -6.68,10.5 -13,20.49 -15.07,23.8 -35.71,56.4 -38.17,59.65 l -0.62,0.84 c -3.85,5.16 -12.87,17.26 -28,17.26"
               transform="translate(-374.36,-473.11)" />
            <path
               id="Fill-23"
               class="cls-3"
               d="m 496.49,580.15 c -6.5,0 -13,-3.35 -17.95,-9.18 -2.32,-2.75 -7.59,-10.5 -12.69,-18 -4.09,-6 -7.94,-11.67 -9.63,-13.8 -3.28,-4.15 -10.1,-12.8 -19.39,-12.8 -8.83,0 -14.89,6.24 -29,21.62 a 2.0416231,2.0416231 0 1 1 -3,-2.77 c 14,-15.27 21,-22.94 32,-22.94 11.27,0 19.21,10.06 22.61,14.35 1.77,2.25 5.67,8 9.79,14 4.81,7.07 10.26,15.08 12.44,17.67 4.13,4.9 9.53,7.72 14.82,7.72 a 2.05,2.05 0 0 1 0,4.1"
               transform="translate(-374.36,-473.11)" />
            <g
               id="Group-27">
              <g
                 class="cls-5"
                 mask="url(#mask)"
                 id="g113">
                <path
                   id="Fill-25"
                   class="cls-3"
                   d="m 639.91,477.21 h -48.16 a 2.05,2.05 0 0 1 0,-4.1 h 48.16 a 2.05,2.05 0 1 1 0,4.1"
                   transform="translate(-374.36,-473.11)" />
              </g>
            </g>
            <g
               class="cls-6"
               mask="url(#mask-2-2)"
               id="g117" />
            <g
               class="cls-6"
               mask="url(#mask-2-2)"
               id="g120" />
            <g
               class="cls-6"
               mask="url(#mask-2-2)"
               id="g123" />
            <g
               class="cls-6"
               mask="url(#mask-2-2)"
               id="g126" />
            <g
               class="cls-6"
               mask="url(#mask-2-2)"
               id="g129" />
            <g
               class="cls-6"
               mask="url(#mask-2-2)"
               id="g132" />
            <g
               class="cls-6"
               mask="url(#mask-2-2)"
               id="g135" />
            <g
               class="cls-6"
               mask="url(#mask-2-2)"
               id="g138" />
            <g
               class="cls-6"
               mask="url(#mask-2-2)"
               id="g141" />
            <g
               class="cls-6"
               mask="url(#mask-2-2)"
               id="g144" />
            <g
               class="cls-6"
               mask="url(#mask-2-2)"
               id="g147" />
            <g
               class="cls-6"
               mask="url(#mask-2-2)"
               id="g150" />
          </g>
        </g>
      </g>
    </g>
  </g>
</svg>
