<?xml version="1.0" encoding="UTF-8" standalone="no"?>
<svg
   xmlns:dc="http://purl.org/dc/elements/1.1/"
   xmlns:cc="http://creativecommons.org/ns#"
   xmlns:rdf="http://www.w3.org/1999/02/22-rdf-syntax-ns#"
   xmlns:svg="http://www.w3.org/2000/svg"
   xmlns="http://www.w3.org/2000/svg"
   xmlns:sodipodi="http://sodipodi.sourceforge.net/DTD/sodipodi-0.dtd"
   xmlns:inkscape="http://www.inkscape.org/namespaces/inkscape"
   version="1.1"
   id="svg2"
   xml:space="preserve"
   width="3000"
   height="1700"
   viewBox="0 0 2999.9999 1699.9999"
   sodipodi:docname="logo-viavarejo-mobile.svg"
   inkscape:export-filename="G:\Users\suitedoalex\sites\via-varejo-logo-0.png"
   inkscape:export-xdpi="96"
   inkscape:export-ydpi="96"
   inkscape:version="1.0.1 (3bc2e813f5, 2020-09-07)"><metadata
     id="metadata8"><rdf:RDF><cc:Work
         rdf:about=""><dc:format>image/svg+xml</dc:format><dc:type
           rdf:resource="http://purl.org/dc/dcmitype/StillImage" /><dc:title></dc:title></cc:Work></rdf:RDF></metadata><defs
     id="defs6"><clipPath
       clipPathUnits="userSpaceOnUse"
       id="clipPath20"><path
         d="M 0,841.89 H 1190.55 V 0 H 0 Z"
         id="path18"
         inkscape:connector-curvature="0" /></clipPath><clipPath
       clipPathUnits="userSpaceOnUse"
       id="clipPath30"><path
         d="M 0,0 H 1190.551 V 841.89 H 0 Z"
         id="path28"
         inkscape:connector-curvature="0" /></clipPath><clipPath
       clipPathUnits="userSpaceOnUse"
       id="clipPath42"><path
         d="M 0,581.591 V 32.945 h 937.593 c -355.02,0 -336.987,612.332 -741.372,612.332 v 0 C 115.339,645.277 52.438,620.784 0,581.591"
         id="path40"
         inkscape:connector-curvature="0" /></clipPath><clipPath
       clipPathUnits="userSpaceOnUse"
       id="clipPath60"><path
         d="M 0,0 H 1190.551 V 841.89 H 0 Z"
         id="path58"
         inkscape:connector-curvature="0" /></clipPath><clipPath
       clipPathUnits="userSpaceOnUse"
       id="clipPath84"><path
         d="M 0,0 H 1190.551 V 841.89 H 0 Z"
         id="path82"
         inkscape:connector-curvature="0" /></clipPath><clipPath
       clipPathUnits="userSpaceOnUse"
       id="clipPath342"><path
         d="M 0,0 H 1190.551 V 841.89 H 0 Z"
         id="path340"
         inkscape:connector-curvature="0" /></clipPath><clipPath
       clipPathUnits="userSpaceOnUse"
       id="clipPath368"><path
         d="M 0,841.89 H 1190.55 V 0 H 0 Z"
         id="path366"
         inkscape:connector-curvature="0" /></clipPath><clipPath
       clipPathUnits="userSpaceOnUse"
       id="clipPath406"><path
         d="M 0,841.89 H 1190.55 V 0 H 0 Z"
         id="path404"
         inkscape:connector-curvature="0" /></clipPath><clipPath
       clipPathUnits="userSpaceOnUse"
       id="clipPath418"><path
         d="M 631.449,30.6949 H 755.502 V 12.1807 H 631.449 Z"
         id="path416"
         inkscape:connector-curvature="0" /></clipPath></defs><sodipodi:namedview
     pagecolor="#ffffff"
     bordercolor="#666666"
     borderopacity="1"
     objecttolerance="10"
     gridtolerance="10"
     guidetolerance="10"
     inkscape:pageopacity="0"
     inkscape:pageshadow="2"
     inkscape:window-width="2560"
     inkscape:window-height="1017"
     id="namedview4"
     showgrid="false"
     inkscape:zoom="0.10512062"
     inkscape:cx="641.35931"
     inkscape:cy="1897.8648"
     inkscape:window-x="-8"
     inkscape:window-y="-8"
     inkscape:window-maximized="1"
     inkscape:current-layer="g10"
     inkscape:document-rotation="0" /><g
     id="g10"
     inkscape:groupmode="layer"
     inkscape:label="VV_RA_2018_digital"
     transform="matrix(1.3333333,0,0,-1.3333333,0,4096)"><g
       id="g78"
       transform="matrix(14.93742,0,0,14.93742,-5287.923,-8730.2983)"
       inkscape:export-filename="G:\Users\suitedoalex\sites\via-varejo-logo-5.png"
       inkscape:export-xdpi="6.4881196"
       inkscape:export-ydpi="6.4881196"><g
         id="g80"
         clip-path="url(#clipPath84)"><g
           id="g86"
           transform="translate(371.0735,734.0148)"><path
             d="m 0,0 -5.147,-17.875 c -0.591,-2.086 -1.533,-2.478 -2.672,-2.478 -1.101,0 -2.162,0.392 -2.75,2.478 L -15.716,0 c -0.04,0.119 -0.04,0.237 -0.04,0.313 0,0.394 0.235,0.669 0.629,0.669 h 0.391 c 0.278,0 0.551,-0.156 0.71,-0.707 l 5.028,-17.718 c 0.353,-1.182 0.745,-1.417 1.179,-1.417 0.432,0 0.745,0.235 1.099,1.417 l 5.03,17.718 c 0.157,0.551 0.43,0.707 0.708,0.707 h 0.469 c 0.394,0 0.551,-0.237 0.551,-0.588 C 0.038,0.275 0.038,0.119 0,0"
             style="fill:#003c2d;fill-opacity:1;fill-rule:nonzero;stroke:none"
             id="path88"
             inkscape:connector-curvature="0" /></g><g
           id="g90"
           transform="translate(375.7852,738.8867)"><path
             d="m 0,0 h -0.235 c -0.391,0 -0.747,0.313 -0.747,0.748 v 2.906 c 0,0.392 0.356,0.745 0.747,0.745 H 0 c 0.394,0 0.748,-0.353 0.748,-0.745 V 0.748 C 0.748,0.313 0.394,0 0,0 m 0,-24.989 h -0.235 c -0.391,0 -0.747,0.353 -0.747,0.747 v 19.605 c 0,0.392 0.356,0.748 0.747,0.748 H 0 c 0.394,0 0.748,-0.356 0.748,-0.748 v -19.605 c 0,-0.394 -0.354,-0.747 -0.748,-0.747"
             style="fill:#003c2d;fill-opacity:1;fill-rule:nonzero;stroke:none"
             id="path92"
             inkscape:connector-curvature="0" /></g><g
           id="g94"
           transform="translate(394.3295,713.8965)"><path
             d="M 0,0 H -0.197 C -0.629,0 -0.982,0.356 -0.982,0.788 V 1.77 c -1.925,-1.063 -4.243,-2.005 -6.68,-2.005 -2.945,0 -6.011,1.414 -6.011,6.326 v 0.513 c 0,4.046 2.556,6.051 9.706,6.051 h 3.025 v 1.412 c 0,4.086 -1.139,5.697 -4.95,5.697 -2.593,0 -3.732,-0.156 -5.581,-0.353 h -0.157 c -0.353,0 -0.745,0.156 -0.745,0.588 v 0.237 c 0,0.432 0.314,0.627 0.902,0.708 1.652,0.197 2.988,0.353 5.581,0.353 5.304,0 6.68,-2.988 6.68,-7.23 V 0.788 C 0.788,0.356 0.434,0 0,0 m -0.942,11.122 h -3.025 c -5.933,0 -7.976,-1.179 -7.976,-4.518 V 6.091 c 0,-3.654 1.925,-4.793 4.281,-4.793 2.199,0 4.086,0.589 6.72,2.003 z"
             style="fill:#003c2d;fill-opacity:1;fill-rule:nonzero;stroke:none"
             id="path96"
             inkscape:connector-curvature="0" /></g><g
           id="g98"
           transform="translate(417.5497,735.1537)"><path
             d="m 0,0 -4.95,-17.878 c -0.788,-2.907 -2.909,-3.694 -4.912,-3.694 -2.003,0 -4.086,0.787 -4.871,3.694 L -19.686,0 c -0.038,0.078 -0.038,0.197 -0.038,0.275 0,0.354 0.276,0.627 0.629,0.627 h 3.93 c 0.353,0 0.666,-0.273 0.783,-0.783 l 3.773,-16.464 c 0.156,-0.745 0.431,-0.982 0.747,-0.982 0.313,0 0.589,0.237 0.745,0.982 l 3.773,16.464 c 0.119,0.51 0.472,0.783 0.826,0.783 h 3.93 c 0.351,0 0.626,-0.273 0.626,-0.627 C 0.038,0.197 0.038,0.078 0,0"
             style="fill:#003c2d;fill-opacity:1;fill-rule:nonzero;stroke:none"
             id="path100"
             inkscape:connector-curvature="0" /></g><g
           id="g102"
           transform="translate(435.7379,713.8982)"><path
             d="M 0,0 H -3.339 C -3.77,0 -4.124,0.354 -4.124,0.785 v 0.629 c -1.808,-1.098 -3.654,-1.73 -5.541,-1.73 -3.26,0 -6.796,1.258 -6.796,6.564 v 0.157 c 0,4.48 2.75,6.795 9.587,6.795 h 2.475 v 1.73 c 0,2.554 -1.139,3.182 -3.458,3.182 -2.515,0 -5.109,-0.156 -6.404,-0.313 h -0.197 c -0.392,0 -0.705,0.116 -0.705,0.667 v 2.515 c 0,0.432 0.235,0.707 0.743,0.824 1.573,0.315 3.851,0.631 6.563,0.631 5.579,0 8.645,-2.477 8.645,-7.506 V 0.785 C 0.788,0.354 0.434,0 0,0 m -4.399,9.743 h -2.475 c -3.576,0 -4.362,-1.141 -4.362,-3.338 V 6.248 c 0,-1.927 0.864,-2.437 2.829,-2.437 1.414,0 2.869,0.472 4.008,1.101 z"
             style="fill:#003c2d;fill-opacity:1;fill-rule:nonzero;stroke:none"
             id="path104"
             inkscape:connector-curvature="0" /></g><g
           id="g106"
           transform="translate(451.2566,731.9328)"><path
             d="m 0,0 c -2.121,0 -3.773,-0.551 -5.422,-1.414 v -15.797 c 0,-0.432 -0.354,-0.823 -0.786,-0.823 h -3.613 c -0.432,0 -0.788,0.391 -0.788,0.823 v 20.55 c 0,0.431 0.356,0.785 0.788,0.785 h 3.416 c 0.432,0 0.788,-0.354 0.788,-0.785 V 2.513 C -3.692,4.008 -1.571,4.399 0,4.399 0.434,4.399 0.785,4.046 0.785,3.614 V 0.785 C 0.785,0.353 0.434,0 0,0"
             style="fill:#003c2d;fill-opacity:1;fill-rule:nonzero;stroke:none"
             id="path108"
             inkscape:connector-curvature="0" /></g><g
           id="g110"
           transform="translate(471.7265,723.1696)"><path
             d="m 0,0 h -12.809 v -0.116 c 0,-2.278 0.942,-4.991 4.715,-4.991 2.869,0 5.579,0.235 7.23,0.394 h 0.116 c 0.394,0 0.708,-0.197 0.708,-0.59 v -2.591 c 0,-0.632 -0.119,-0.907 -0.824,-1.023 -2.555,-0.473 -4.088,-0.672 -7.624,-0.672 -3.927,0 -9.506,2.126 -9.506,9.864 v 2.907 c 0,6.132 3.417,9.981 9.428,9.981 6.051,0 9.349,-4.127 9.349,-9.981 v -2.2 C 0.783,0.354 0.551,0 0,0 m -4.44,3.851 c 0,3.064 -1.689,4.831 -4.126,4.831 -2.437,0 -4.203,-1.727 -4.203,-4.831 V 3.695 h 8.329 z"
             style="fill:#003c2d;fill-opacity:1;fill-rule:nonzero;stroke:none"
             id="path112"
             inkscape:connector-curvature="0" /></g><g
           id="g114"
           transform="translate(475.4558,706.0393)"><path
             d="m 0,0 c -0.861,0 -1.649,0.081 -2.591,0.235 -0.513,0.078 -0.748,0.316 -0.748,0.71 v 2.553 c 0,0.391 0.316,0.629 0.826,0.629 h 1.768 c 1.258,0 1.376,0.51 1.376,2.081 v 23.024 c 0,0.432 0.351,0.785 0.783,0.785 h 3.617 c 0.429,0 0.785,-0.353 0.785,-0.785 V 6.208 C 5.816,1.414 3.654,0 0,0 M 5.109,32.965 H 1.338 c -0.434,0 -0.787,0.353 -0.787,0.785 v 3.457 c 0,0.432 0.353,0.788 0.787,0.788 h 3.771 c 0.432,0 0.826,-0.356 0.826,-0.788 V 33.75 c 0,-0.432 -0.394,-0.785 -0.826,-0.785"
             style="fill:#003c2d;fill-opacity:1;fill-rule:nonzero;stroke:none"
             id="path116"
             inkscape:connector-curvature="0" /></g><g
           id="g118"
           transform="translate(494.2361,713.5823)"><path
             d="m 0,0 c -6.17,0 -9.392,4.164 -9.392,9.783 v 3.185 c 0,5.617 3.222,9.784 9.392,9.784 6.17,0 9.392,-4.167 9.392,-9.784 V 9.783 C 9.392,4.164 6.17,0 0,0 m 4.205,12.968 c 0,3.222 -1.455,5.304 -4.205,5.304 -2.75,0 -4.202,-2.082 -4.202,-5.304 V 9.783 C -4.202,6.564 -2.75,4.48 0,4.48 c 2.75,0 4.205,2.084 4.205,5.303 z"
             style="fill:#003c2d;fill-opacity:1;fill-rule:nonzero;stroke:none"
             id="path120"
             inkscape:connector-curvature="0" /></g><g
           id="g122"
           transform="translate(426.8196,762.556)"><path
             d="m 0,0 c -2.859,-3.528 -5.561,-6.859 -9.922,-6.859 l -4.253,-0.068 -5.309,-0.003 c -0.444,-0.043 -0.641,-0.361 -0.621,-0.806 0.023,-0.444 0.399,-0.795 0.843,-0.795 h 9.34 c 5.156,0 8.237,3.803 11.217,7.478 1.566,1.934 3.054,3.765 4.781,4.998 0,0 -0.755,0.598 -1.47,0.982 C 2.902,3.579 1.432,1.765 0,0"
             style="fill:#ffc20e;fill-opacity:1;fill-rule:nonzero;stroke:none"
             id="path124"
             inkscape:connector-curvature="0" /></g><g
           id="g126"
           transform="translate(489.9317,778.2178)"><path
             d="m 0,0 c -4.647,-7.38 -11.372,-17.88 -15.17,-23.765 -2.185,-3.381 -3.17,-5.515 -6.44,-7.417 -1.354,-0.785 -2.915,-1.333 -4.561,-1.333 -2.723,0 -5.306,1.467 -7.683,4.371 0,0 -0.308,0.359 -1.027,1.316 -1.965,2.616 -3.539,5.253 -4.94,7.599 -3.576,5.991 -6.4,10.723 -12.812,10.723 -1.52,0 -3.023,-0.379 -4.404,-1.151 0,0 0.97,-0.672 1.475,-1.129 0.916,0.411 1.942,0.611 2.929,0.611 5.465,0 7.945,-4.157 11.38,-9.91 1.407,-2.359 2.987,-5.005 4.975,-7.665 0.538,-0.727 1.04,-1.338 1.04,-1.338 2.733,-3.382 5.784,-5.099 9.067,-5.096 4.887,0 8.68,3.805 10.003,5.818 2.265,3.45 11.627,18.024 17.58,27.477 5.419,8.604 11.059,8.816 11.723,8.816 L 7.988,8.064 C 5.627,6.755 2.75,4.366 0,0"
             style="fill:#ffc20e;fill-opacity:1;fill-rule:nonzero;stroke:none"
             id="path128"
             inkscape:connector-curvature="0" /></g><g
           id="g130"
           transform="translate(503.0918,787.8134)"><path
             d="m 0,0 c -0.434,0.012 -4.485,0.131 -12.685,0.131 -8.66,0 -12.716,-1.669 -16.077,-6.619 -2.096,-3.086 -5.165,-8.144 -8.13,-13.034 -1.447,-2.386 -2.848,-4.695 -4.053,-6.637 -0.586,-0.944 -1.147,-1.899 -1.7,-2.838 -1.75,-2.983 -3.414,-5.814 -5.419,-7.468 0.719,-0.96 1.028,-1.318 1.028,-1.318 2.247,1.841 3.992,4.813 5.831,7.94 0.545,0.929 1.098,1.871 1.677,2.803 1.209,1.947 2.611,4.263 4.063,6.655 2.955,4.869 6.011,9.907 8.084,12.96 3.026,4.457 6.599,5.889 14.696,5.889 3.073,0 5.609,0.023 7.541,0.003 l 5.119,-0.136 c 0.452,0 0.82,0.358 0.833,0.81 C 0.821,-0.397 0.46,-0.015 0,0"
             style="fill:#006f3b;fill-opacity:1;fill-rule:nonzero;stroke:none"
             id="path132"
             inkscape:connector-curvature="0" /></g><g
           id="g134"
           transform="translate(451.105,749.8317)"><path
             d="m 0,0 c -3.899,0 -6.723,4.344 -9.453,8.541 -0.697,1.073 -1.353,2.083 -2.035,3.033 -1.867,2.606 -3.607,4.616 -5.185,5.985 -0.505,0.455 -1.475,1.129 -1.475,1.129 -2.374,1.543 -4.96,1.591 -7.985,-0.083 -1.806,-1.003 -3.836,-2.844 -6.731,-6.187 -5.098,-5.9 -10.851,-6.617 -10.907,-6.625 l 5.309,0.003 c 2.058,1.045 4.505,2.803 6.861,5.528 2.313,2.674 4.005,4.303 5.45,5.288 2.758,1.874 4.912,1.844 6.473,1.041 0.714,-0.387 1.467,-0.983 1.467,-0.983 1.573,-1.265 3.417,-3.346 5.367,-6.066 0.659,-0.919 1.308,-1.917 1.992,-2.97 2.836,-4.361 6.049,-9.303 10.852,-9.303 1.268,0 2.505,0.295 3.629,0.916 0,0 -0.503,0.611 -1.038,1.339 C 1.788,0.187 0.889,0 0,0"
             style="fill:#006f3b;fill-opacity:1;fill-rule:nonzero;stroke:none"
             id="path136"
             inkscape:connector-curvature="0" /></g><g
           id="g138"
           transform="translate(489.9317,778.2178)"><path
             d="m 0,0 c -1.174,-1.866 -2.483,-3.932 -3.841,-6.071 h 1.975 c 1.156,1.821 2.268,3.576 3.278,5.182 5.419,8.604 11.059,8.816 11.723,8.816 L 7.988,8.064 C 5.627,6.755 2.75,4.366 0,0"
             style="fill:#ffc20e;fill-opacity:1;fill-rule:nonzero;stroke:none"
             id="path140"
             inkscape:connector-curvature="0" /></g><g
           id="g142"
           transform="translate(422.0341,766.2391)"><path
             d="m 0,0 c -1.101,-1.005 -2.336,-2.308 -3.793,-3.99 -5.099,-5.9 -10.852,-6.617 -10.908,-6.624 l 5.311,0.002 c 2.056,1.046 4.506,2.803 6.859,5.528 0.94,1.086 1.771,1.993 2.531,2.761 z"
             style="fill:#006f3b;fill-opacity:1;fill-rule:nonzero;stroke:none"
             id="path144"
             inkscape:connector-curvature="0" /></g></g></g></g></svg>
